<!-- Generated by IcoMoon.io -->
<svg version="1.1" xmlns="http://www.w3.org/2000/svg" width="38" height="32" viewBox="0 0 38 32">
    <path fill="white" d="M18.32 0.672c0.475 0.235 1.008 0.912 1.366 1.312 3.072 3.43 4.682 7.8 4.397 12.4-0.275 4.45-2.474 8.403-5.773 11.323-0.624-0.427-1.197-1.035-1.696-1.6-2.803-3.17-4.339-7.624-4.072-11.848 0.277-4.357 2.502-8.717 5.779-11.587z"></path>
    <path fill="white" d="M31.392 6.901c0.010 0.016 0.021 0.030 0.029 0.048 0.174 0.355 0.224 0.918 0.269 1.314 0.232 2.054 0.040 4.115-0.682 6.059-1.806 4.861-5.978 8.438-10.592 10.558-0.054 0-0.016 0.003-0.101-0.045 0.282-0.461 0.675-0.874 1.002-1.307 0.496-0.675 0.947-1.386 1.349-2.123 1.413-2.6 2.088-5.459 2.086-8.41 0-0.837-0.019-1.674-0.262-2.482 0.432-0.48 0.963-0.885 1.478-1.275 1.658-1.254 3.328-2.128 5.424-2.336zM5.192 6.922c0.25 0.010 0.501 0.042 0.747 0.080 1.894 0.288 3.552 1.296 5.034 2.464 0.413 0.326 0.864 0.666 1.176 1.094-0.787 4.045 0.256 8.285 2.349 11.782 0.333 0.555 0.694 1.094 1.080 1.616 0.186 0.248 0.405 0.474 0.57 0.734l-0.059 0.075c-3.446-1.474-6.677-4.083-8.755-7.202-2.179-3.272-2.899-6.798-2.141-10.645z"></path>
    <path fill="white" d="M34.765 15.946c0.55-0.064 1.782-0.134 2.243 0.16 0.022 0.067 0.030 0.075 0.032 0.16 0.010 0.32-0.202 0.805-0.31 1.104-0.768 2.144-2.017 3.956-3.621 5.374l-0.014 0.012c-3.235 2.859-7.429 3.886-11.664 3.614-0.8-0.085-1.624-0.139-2.394-0.384 3.549-1.093 6.925-3.322 9.37-6.106 0.602-0.685 1.042-1.48 1.627-2.168 1.109-1.307 3.122-1.653 4.731-1.766zM0.869 16.054c1.653-0.195 3.898 0.077 5.259 1.107 0.81 0.611 1.298 1.747 1.968 2.522 2.065 2.381 4.625 4.275 7.525 5.532l0.135 0.052c0.627 0.27 1.274 0.55 1.936 0.714l-1.326 0.222c-3.862 0.555-7.866-0.134-11.171-2.283-2.251-1.464-3.835-3.472-4.768-5.976-0.136-0.368-0.341-0.766-0.411-1.149-0.011-0.045-0.017-0.096-0.017-0.149 0-0.156 0.054-0.299 0.144-0.412l-0.001 0.001c0.208-0.152 0.477-0.15 0.726-0.181zM18.522 26.243c0.672 0.24 1.349 0.43 2.054 0.544 1.214 0.197 2.624 0.139 3.717 0.773 0.805 0.467 1.63 1.562 1.858 2.469 0.042 0.166 0.030 0.181-0.056 0.318-0.843 0.304-1.662 0.232-2.501-0.043-2.022-0.662-4.082-2.134-5.072-4.061zM18.141 26.248c0.043-0.003 0.085 0.018 0.125 0.030 0 0.019 0 0.038-0.006 0.058-0.102 0.432-1.768 2.186-2.152 2.488-1.328 1.050-3.299 1.882-5.013 1.677-0.045-0.010-0.109-0.022-0.15-0.042-0.093-0.042-0.15-0.077-0.176-0.176-0.064-0.269 0.088-0.579 0.21-0.811 0.392-0.752 1.008-1.632 1.776-2.037 0.95-0.498 2.352-0.496 3.406-0.685 0.675-0.12 1.326-0.304 1.981-0.502z"></path>
</svg>